<?xml version="1.0" encoding="utf-8"?>
<!-- Generator: Adobe Illustrator 22.0.1, SVG Export Plug-In . SVG Version: 6.00 Build 0)  -->
<svg version="1.1" id="Capa_1" xmlns="http://www.w3.org/2000/svg" xmlns:xlink="http://www.w3.org/1999/xlink" x="0px" y="0px"
	 viewBox="0 0 400 400" style="enable-background:new 0 0 400 400;" xml:space="preserve">
<style type="text/css">
	.st0{fill:#FFFFFF;}
	.st1{fill:#1E9287;}
</style>
<circle class="st0" cx="200" cy="157.6" r="133.7"/>
<g>
	<path class="st1" d="M200.7,397.8c-16.5-19-32.2-35.4-46.9-53.6c-33.8-40.4-65.1-83.2-86.5-131.8c-20.6-46.9-20.6-93.9,5.8-138.4
		C105.2,20.5,167-6.7,227.9,4.9C288,16.4,335,64.2,345.7,125.1c5,30.5-0.8,59.3-13.2,87.3c-19,44.5-46.9,84.1-77.4,121.1
		c-15.6,19-32.2,37.1-48.6,56C204.1,392.1,203.3,394.5,200.7,397.8z M298.8,150.7c0-55.2-43.7-99.7-98.8-99.7
		c-54.4,0-98.8,44.5-98.8,98.8c0,55.2,43.7,99.7,98,99.7C254.3,249.5,298.8,205.8,298.8,150.7z"/>
</g>
<path class="st1" d="M265.9,86.5H134.1V103h131.8V86.5z M274.1,168.8v-16.4l-8.2-41.2H134.1l-8.2,41.2v16.5h8.2v49.5h82.4v-49.5
	h32.9v49.5H266v-49.5L274.1,168.8L274.1,168.8z M200,201.7h-49.5v-32.9H200V201.7L200,201.7z"/>
</svg>
