<?xml version="1.0" encoding="utf-8"?>
<!-- Generator: Adobe Illustrator 22.0.1, SVG Export Plug-In . SVG Version: 6.00 Build 0)  -->
<svg version="1.1" id="Capa_1" xmlns="http://www.w3.org/2000/svg" xmlns:xlink="http://www.w3.org/1999/xlink" x="0px" y="0px"
	 viewBox="0 0 240 240" style="enable-background:new 0 0 240 240;" xml:space="preserve">
<style type="text/css">
	.st0{stroke:#000000;stroke-miterlimit:10;}
	.st1{fill:#FFFFFF;}
	.st2{fill:none;stroke:#000000;stroke-width:0.3;}
</style>
<rect x="0.4" y="-0.3" class="st0" width="239" height="240.5"/>
<g>
	<path class="st1" d="M89,133.3c0-7.5-8.9-9.2-19.6-9.8c-23.2-1.7-38.5-9.6-38.8-32.9c-0.9-46.2,82.3-46.2,81.6,0
		c-9.6,0-16.7,0-26,0c0-14.2-28.7-13-29.7-0.3c-0.6,8.1,7.3,9.8,17,10.9c21.3,2.3,42,5.5,42,32.3c0,44.9-87.1,45.7-86.5-1.4
		c9.2,0,17.1,0,26.4,0C55.6,145.7,89,145.8,89,133.3z"/>
	<path class="st1" d="M206.3,109.1c8.7,4.4,12.8,12.4,12.8,21.9c-0.2,18.7-11.5,33.8-33.3,33.8h-50.1v-107h45.7
		c18.5,0,33.3,14.4,33.3,32.9C214.7,97,211.5,104.8,206.3,109.1z M162.1,82.2v17.3h17.3c10.9,0,10.9-17.3-0.2-17.3H162.1z
		 M162.1,122.3v18.2H184c11,0,10.9-18.2-0.2-18.2H162.1z"/>
	<path class="st1" d="M23,183.9v-7.6h99.1v7.6H23z"/>
</g>
<g>
	<line class="st2" x1="10.6" y1="-24.2" x2="10.6" y2="11.8"/>
	<line class="st2" x1="-43.4" y1="29.8" x2="-7.4" y2="29.8"/>
	<line class="st2" x1="-43.4" y1="210.1" x2="-7.4" y2="210.1"/>
	<line class="st2" x1="10.6" y1="264.1" x2="10.6" y2="228.1"/>
	<line class="st2" x1="229.3" y1="-24.2" x2="229.3" y2="11.8"/>
	<line class="st2" x1="283.3" y1="29.8" x2="247.3" y2="29.8"/>
	<line class="st2" x1="283.3" y1="210.1" x2="247.3" y2="210.1"/>
	<line class="st2" x1="229.3" y1="264.1" x2="229.3" y2="228.1"/>
</g>
</svg>
