<?xml version="1.0" encoding="utf-8"?>
<!-- Generator: Adobe Illustrator 22.0.1, SVG Export Plug-In . SVG Version: 6.00 Build 0)  -->
<svg version="1.1" id="Capa_1" xmlns="http://www.w3.org/2000/svg" xmlns:xlink="http://www.w3.org/1999/xlink" x="0px" y="0px"
	 viewBox="0 0 1366 768" style="enable-background:new 0 0 1366 768;" xml:space="preserve">
<style type="text/css">
	.st0{display:none;fill:#4DB6AC;}
	.st1{display:none;}
	.st2{display:inline;fill:#FFFFFF;}
	.st3{display:inline;}
	.st4{fill:#1E9287;}
	.st5{display:inline;fill:#1E9287;}
	.st6{fill:#FFFFFF;}
	.st7{fill:none;}
</style>
<rect x="-5" y="-8" class="st0" width="1417" height="828"/>
<g class="st1">
	<path class="st2" d="M530.9,304.3c0-5.9,4.7-12.4,12.2-12.4h41.6c23.4,0,44.5,15.7,44.5,45.7c0,28.4-21.1,44.3-44.5,44.3h-30.1
		v23.8c0,7.9-5,12.4-11.5,12.4c-5.9,0-12.2-4.5-12.2-12.4L530.9,304.3L530.9,304.3z M554.7,314.6v44.8h30.1
		c12.1,0,21.6-10.6,21.6-21.8c0-12.6-9.5-23-21.6-23H554.7z"/>
	<path class="st2" d="M640.7,310.4c-9.7-12.1,10.6-25.9,20.2-12.8l33.1,49.3l33.7-49.3c9.5-13.1,29.2,0,19.8,12.1l-42.1,59.9v37.1
		c1.6,15.7-23.8,15.7-23.8,0v-37.1L640.7,310.4z"/>
	<path class="st2" d="M788.5,339.1v66.6c0,7.9-6.5,12.4-13,12.4c-5.8,0-10.8-4.5-10.8-12.4V304.3c0-9.4,7.9-12.4,10.8-12.4
		c5.2,0,8.3,3.1,11.3,6.5l39.6,53.5l41-55.4c5.9-7.4,20.5-4.5,20.5,7.9v101.3c0,7.9-5,12.4-10.8,12.4c-6.5,0-11.5-4.5-11.5-12.4
		v-66.6l-29.8,37.8c-6.5,7.9-14.6,7.9-20.5,0L788.5,339.1z"/>
	<path class="st2" d="M910.5,418.1c-5.8-3.2-9.4-9.7-5.8-17.3l51.7-101c4.9-9.5,17.8-9.9,22.3,0l50.8,101
		c7.4,14-14.4,25.2-20.9,11.2l-7.9-15.8h-66.4l-7.7,15.8C923.7,418.1,917,419.3,910.5,418.1z M987.9,372.4l-20.3-44.5l-22.1,44.5
		H987.9z"/>
	<path class="st2" d="M1046.1,304.3c0-5.9,4.7-12.4,12.2-12.4h41.6c23.4,0,44.5,15.7,44.5,45.7c0,28.4-21.1,44.3-44.5,44.3h-30.1
		v23.8c0,7.9-5,12.4-11.5,12.4c-5.9,0-12.2-4.5-12.2-12.4V304.3z M1069.8,314.6v44.8h30.1c12.1,0,21.6-10.6,21.6-21.8
		c0-12.6-9.5-23-21.6-23H1069.8z"/>
	<path class="st2" d="M1163.6,304.3c0-5.9,4.7-12.4,12.2-12.4h41.6c23.4,0,44.5,15.7,44.5,45.7c0,28.4-21.1,44.3-44.5,44.3h-30.1
		v23.8c0,7.9-5,12.4-11.5,12.4c-5.9,0-12.2-4.5-12.2-12.4V304.3z M1187.4,314.6v44.8h30.1c12.1,0,21.6-10.6,21.6-21.8
		c0-12.6-9.5-23-21.6-23H1187.4z"/>
</g>
<g class="st1">
	<circle class="st2" cx="253" cy="297" r="153"/>
	<g class="st3">
		<path class="st4" d="M258,641c-1,1-5.1,4-6,3c-1.1-1.2-3.4-4.5-4.5-5.8c-21.3-24.1-41.5-45.8-60.8-69.3
			c-47.9-57.3-92.3-118.1-122.7-187c-29.2-66.6-29.2-133.3,8.2-196.4c45.6-76,133.3-114.6,219.7-98.2
			c85.3,16.4,152,84.2,167.2,170.7c7,43.2-1.2,84.2-18.7,123.9c-26.9,63.1-66.6,119.2-109.9,171.8 M392.4,294.2
			c0-78.3-62-141.4-140.3-141.4c-77.1,0-140.3,63.1-140.3,140.3c0,78.3,62,141.4,139.1,141.4C329.3,434.5,392.4,372.5,392.4,294.2z"
			/>
	</g>
	<path class="st5" d="M345.7,203.1h-187v23.4h187V203.1z M357.4,319.9v-23.4l-11.7-58.4h-187L147,296.6V320h11.7v70.1h116.9V320
		h46.8v70.1h23.4V320h11.6V319.9z M252.2,366.7H182v-46.8h70.1L252.2,366.7L252.2,366.7z"/>
</g>
<g>
	<g>
		<path class="st6" d="M582.9,304.3c0-5.9,4.7-12.4,12.2-12.4h41.6c23.4,0,44.5,15.7,44.5,45.7c0,28.4-21.1,44.3-44.5,44.3h-30.1
			v23.8c0,7.9-5,12.4-11.5,12.4c-5.9,0-12.2-4.5-12.2-12.4V304.3L582.9,304.3z M606.7,314.6v44.8h30.1c12.1,0,21.6-10.6,21.6-21.8
			c0-12.6-9.5-23-21.6-23H606.7z"/>
		<path class="st6" d="M692.7,310.4c-9.7-12.1,10.6-25.9,20.2-12.8l33.1,49.3l33.7-49.3c9.5-13.1,29.2,0,19.8,12.1l-42.1,59.9v37.1
			c1.6,15.7-23.8,15.7-23.8,0v-37.1L692.7,310.4z"/>
		<path class="st6" d="M840.5,339.1v66.6c0,7.9-6.5,12.4-13,12.4c-5.8,0-10.8-4.5-10.8-12.4V304.3c0-9.4,7.9-12.4,10.8-12.4
			c5.2,0,8.3,3.1,11.3,6.5l39.6,53.5l41-55.4c5.9-7.4,20.5-4.5,20.5,7.9v101.3c0,7.9-5,12.4-10.8,12.4c-6.5,0-11.5-4.5-11.5-12.4
			v-66.6l-29.8,37.8c-6.5,7.9-14.6,7.9-20.5,0L840.5,339.1z"/>
		<path class="st6" d="M962.5,418.1c-5.8-3.2-9.4-9.7-5.8-17.3l51.7-101c4.9-9.5,17.8-9.9,22.3,0l50.8,101
			c7.4,14-14.4,25.2-20.9,11.2l-7.9-15.8h-66.4l-7.7,15.8C975.7,418.1,969,419.3,962.5,418.1z M1039.9,372.4l-20.3-44.5l-22.1,44.5
			H1039.9z"/>
		<path class="st6" d="M1098.1,304.3c0-5.9,4.7-12.4,12.2-12.4h41.6c23.4,0,44.5,15.7,44.5,45.7c0,28.4-21.1,44.3-44.5,44.3h-30.1
			v23.8c0,7.9-5,12.4-11.5,12.4c-5.9,0-12.2-4.5-12.2-12.4V304.3z M1121.8,314.6v44.8h30.1c12.1,0,21.6-10.6,21.6-21.8
			c0-12.6-9.5-23-21.6-23H1121.8z"/>
		<path class="st6" d="M1215.6,304.3c0-5.9,4.7-12.4,12.2-12.4h41.6c23.4,0,44.5,15.7,44.5,45.7c0,28.4-21.1,44.3-44.5,44.3h-30.1
			v23.8c0,7.9-5,12.4-11.5,12.4c-5.9,0-12.2-4.5-12.2-12.4V304.3z M1239.4,314.6v44.8h30.1c12.1,0,21.6-10.6,21.6-21.8
			c0-12.6-9.5-23-21.6-23H1239.4z"/>
	</g>
	<g>
		<circle class="st6" cx="331.5" cy="286.9" r="141.2"/>
		<g id="Rounded">
			<g id="ui_x5F_spec_x5F_header_copy_5" class="st1">
			</g>
			<g>
				<path class="st4" d="M263.6,229.4h144.9c5.7,0,10.3-4.6,10.3-10.3c0-5.7-4.6-10.3-10.3-10.3H263.6c-5.7,0-10.3,4.6-10.3,10.3
					C253.3,224.8,257.9,229.4,263.6,229.4z"/>
				<path class="st4" d="M420.5,247.9c-0.9-4.8-5.2-8.3-10.1-8.3H261.7c-5,0-9.3,3.6-10.1,8.3l-10.3,51.8
					c-1.2,6.4,3.7,12.5,10.1,12.5h1.9v51.8c0,5.7,4.6,10.3,10.3,10.3h82.8c5.7,0,10.3-4.6,10.3-10.3v-51.8h41.4v51.8
					c0,5.7,4.6,10.3,10.3,10.3c5.7,0,10.3-4.6,10.3-10.3v-51.8h1.9c6.5,0,11.4-6.1,10.1-12.5L420.5,247.9z M336.1,353.5H274V312
					h62.1V353.5z"/>
			</g>
		</g>
		<g id="Rounded_2_">
			<g id="ui_x5F_spec_x5F_header_copy_6">
			</g>
			<path class="st4" d="M333.9,102.8c-105,0-190,85-190,190c0,113.2,120,252.7,169.4,312.1c10.9,13,30.7,13,41.5,0
				c49.1-59.4,169.1-199,169.1-312.1C523.9,187.8,439,102.8,333.9,102.8z M333.9,420.3c-70.4,0-127.5-57.1-127.5-127.5
				s57.1-127.5,127.5-127.5s127.5,57.1,127.5,127.5S404.3,420.3,333.9,420.3z"/>
		</g>
		<g id="Rounded_1_" class="st1">
			<path class="st5" d="M333.3,98.4c-104.7,0-190,85.3-190,190c0,113.2,120.5,256,169.9,315.3c10.8,13.1,30.1,13.1,41.1,0
				c49.2-59.4,169.1-202.2,169.1-315.3C523.3,183.7,438.1,98.4,333.3,98.4z M333.3,162.1c69.7,0,126.7,57,126.7,126.7
				c0,70.3-57,126.7-126.7,126.7s-126.7-56.4-126.7-126.7C206.6,219.1,263.6,162.1,333.3,162.1z"/>
		</g>
	</g>
</g>
<path class="st7" d="M222,185h24"/>
</svg>
