<?xml version="1.0" encoding="utf-8"?>
<!-- Generator: Adobe Illustrator 22.0.1, SVG Export Plug-In . SVG Version: 6.00 Build 0)  -->
<svg version="1.1" id="Capa_1" xmlns="http://www.w3.org/2000/svg" xmlns:xlink="http://www.w3.org/1999/xlink" x="0px" y="0px"
	 viewBox="0 0 1366 768" style="enable-background:new 0 0 1366 768;" xml:space="preserve">
<style type="text/css">
	.st0{fill:#FFFFFF;}
	.st1{fill:#1E9287;}
</style>
<circle class="st0" cx="235" cy="321" r="153"/>
<g>
	<path class="st1" d="M235.6,595.9c-18.9-21.7-36.8-40.5-53.7-61.3c-38.7-46.2-74.5-95.2-99-150.8c-23.6-53.7-23.6-107.5,6.6-158.4
		c36.8-61.3,107.5-92.4,177.2-79.2c68.8,13.2,122.5,67.9,134.8,137.6c5.7,34.9-0.9,67.9-15.1,99.9c-21.7,50.9-53.7,96.2-88.6,138.6
		c-17.9,21.7-36.8,42.4-55.6,64.1C239.4,589.3,238.5,592.1,235.6,595.9z M347.8,313.1c0-63.2-50-114.1-113.1-114.1
		c-62.2,0-113.1,50.9-113.1,113.1c0,63.2,50,114.1,112.2,114.1C296.9,426.2,347.8,376.2,347.8,313.1z"/>
</g>
<path class="st1" d="M310.1,239.6H159.3v18.9h150.8V239.6z M319.5,333.8V315l-9.4-47.1H159.3l-9.4,47.1v18.9h9.4v56.6h94.3v-56.6
	h37.7v56.6h18.9v-56.6h9.3V333.8z M234.7,371.5h-56.6v-37.7h56.6L234.7,371.5L234.7,371.5z"/>
<g>
	<path class="st0" d="M436.5,298.2c0-7,5.5-14.7,14.5-14.7h49.3c27.7,0,52.7,18.6,52.7,54.2c0,33.7-25,52.5-52.7,52.5h-35.6v28.2
		c0,9.4-6,14.7-13.7,14.7c-7,0-14.5-5.3-14.5-14.7L436.5,298.2L436.5,298.2z M464.7,310.3v53.2h35.6c14.3,0,25.6-12.6,25.6-25.8
		c0-14.9-11.3-27.3-25.6-27.3h-35.6V310.3z"/>
	<path class="st0" d="M566.7,305.4c-11.5-14.3,12.6-30.7,23.9-15.2l39.3,58.5l39.9-58.5c11.3-15.6,34.6,0,23.5,14.3l-49.9,71.1v44
		c1.9,18.6-28.2,18.6-28.2,0v-44L566.7,305.4z"/>
	<path class="st0" d="M741.9,339.4v79c0,9.4-7.7,14.7-15.4,14.7c-6.8,0-12.8-5.3-12.8-14.7V298.2c0-11.1,9.4-14.7,12.8-14.7
		c6.2,0,9.8,3.6,13.4,7.7l47,63.4l48.7-65.7c7-8.8,24.3-5.3,24.3,9.4v120.2c0,9.4-6,14.7-12.8,14.7c-7.7,0-13.7-5.3-13.7-14.7v-79
		L798,384.3c-7.7,9.4-17.3,9.4-24.3,0L741.9,339.4z"/>
	<path class="st0" d="M886.7,433.1c-6.8-3.8-11.1-11.5-6.8-20.5l61.3-119.7c5.8-11.3,21.1-11.7,26.5,0l60.2,119.7
		c8.8,16.6-17.1,29.9-24.8,13.2l-9.4-18.8h-78.8l-9.2,18.8C902.2,433.1,894.3,434.6,886.7,433.1z M978.4,378.9l-24.1-52.7L928,378.9
		H978.4z"/>
	<path class="st0" d="M1047.4,298.2c0-7,5.5-14.7,14.5-14.7h49.3c27.7,0,52.7,18.6,52.7,54.2c0,33.7-25,52.5-52.7,52.5h-35.6v28.2
		c0,9.4-6,14.7-13.7,14.7c-7,0-14.5-5.3-14.5-14.7L1047.4,298.2L1047.4,298.2z M1075.6,310.3v53.2h35.6c14.3,0,25.6-12.6,25.6-25.8
		c0-14.9-11.3-27.3-25.6-27.3h-35.6V310.3z"/>
	<path class="st0" d="M1186.8,298.2c0-7,5.5-14.7,14.5-14.7h49.3c27.7,0,52.7,18.6,52.7,54.2c0,33.7-25,52.5-52.7,52.5H1215v28.2
		c0,9.4-6,14.7-13.7,14.7c-7,0-14.5-5.3-14.5-14.7L1186.8,298.2L1186.8,298.2z M1214.9,310.3v53.2h35.6c14.3,0,25.6-12.6,25.6-25.8
		c0-14.9-11.3-27.3-25.6-27.3h-35.6V310.3z"/>
</g>
</svg>
