<?xml version="1.0" encoding="utf-8"?>
<!-- Generator: Adobe Illustrator 22.0.1, SVG Export Plug-In . SVG Version: 6.00 Build 0)  -->
<svg version="1.1" id="Capa_1" xmlns="http://www.w3.org/2000/svg" xmlns:xlink="http://www.w3.org/1999/xlink" x="0px" y="0px"
	 viewBox="0 0 120 120" style="enable-background:new 0 0 120 120;" xml:space="preserve">
<style type="text/css">
	.st0{fill:#347C75;}
</style>
<path class="st0" d="M103.5,31L88.4,16c-0.6-0.6-1.4-1-2.4-1H74.3c-1.8,0-3.3,1.5-3.3,3.3v11.7c0,0.9,0.4,1.8,1,2.4L87,47.5
	c0.6,0.6,1.4,1,2.4,1c0.9,0,1.8-0.4,2.4-1l11.7-11.7c0.6-0.6,1-1.4,1-2.4C104.5,32.5,104.1,31.6,103.5,31z M76.9,23.4
	c-1.4,0-2.5-1.1-2.5-2.5s1.1-2.5,2.5-2.5s2.5,1.1,2.5,2.5S78.2,23.4,76.9,23.4z"/>
<path class="st0" d="M81.5,89h-3.3L77,87.9c4.1-4.8,6.6-11,6.6-17.8c0-15.1-12.2-27.3-27.3-27.3S29,55,29,70.1s12.2,27.3,27.3,27.3
	c6.8,0,13-2.5,17.8-6.6l1.1,1.2v3.3l21,21l6.3-6.3L81.5,89z M56.3,89c-10.5,0-18.9-8.4-18.9-18.9s8.4-18.9,18.9-18.9
	s18.9,8.4,18.9,18.9S66.8,89,56.3,89z"/>
<path class="st0" d="M38.1,16H11.4v3.3h26.8V16z M39.8,32.7v-3.3L38.1,21H11.4l-1.7,8.4v3.3h1.7v10h16.7v-10h6.7v10h3.3v-10H39.8z
	 M24.7,39.4h-10v-6.7h10V39.4z"/>
</svg>
